<svg id="visual" viewBox="0 0 900 600" width="900" height="600" xmlns="http://www.w3.org/2000/svg" xmlns:xlink="http://www.w3.org/1999/xlink" version="1.1"><g stroke-width="1" stroke-linejoin="bevel"><path d="M456.6 288.7L408.4 316.3L463.6 319.3Z" fill="#277297" stroke="#277297"></path><path d="M456.6 288.7L419.4 278.7L408.4 316.3Z" fill="#0c2435" stroke="#0c2435"></path><path d="M463.6 319.3L492.8 270.7L456.6 288.7Z" fill="#15384f" stroke="#15384f"></path><path d="M456.6 288.7L492.8 270.7L419.4 278.7Z" fill="#246688" stroke="#246688"></path><path d="M372.2 260.7L369.2 271.3L419.4 278.7Z" fill="#277297" stroke="#277297"></path><path d="M419.4 278.7L369.2 271.3L408.4 316.3Z" fill="#205a7a" stroke="#205a7a"></path><path d="M431.6 173.3L372.2 260.7L419.4 278.7Z" fill="#112e42" stroke="#112e42"></path><path d="M463.6 319.3L515.8 294.3L492.8 270.7Z" fill="#297ea6" stroke="#297ea6"></path><path d="M427.6 403L463.6 319.3L408.4 316.3Z" fill="#15384f" stroke="#15384f"></path><path d="M427.6 403L470.4 388L463.6 319.3Z" fill="#1d4e6b" stroke="#1d4e6b"></path><path d="M463.6 319.3L500.8 392L515.8 294.3Z" fill="#297ea6" stroke="#297ea6"></path><path d="M319.9 356L427.6 403L408.4 316.3Z" fill="#0c2435" stroke="#0c2435"></path><path d="M491.8 448.7L500.8 392L470.4 388Z" fill="#1d4e6b" stroke="#1d4e6b"></path><path d="M470.4 388L500.8 392L463.6 319.3Z" fill="#205a7a" stroke="#205a7a"></path><path d="M372.2 260.7L328.9 278.7L369.2 271.3Z" fill="#112e42" stroke="#112e42"></path><path d="M369.2 271.3L328.9 278.7L408.4 316.3Z" fill="#19435d" stroke="#19435d"></path><path d="M328.9 278.7L319.9 356L408.4 316.3Z" fill="#297ea6" stroke="#297ea6"></path><path d="M640.1 301.3L558.8 258L515.8 294.3Z" fill="#00101c" stroke="#00101c"></path><path d="M515.8 294.3L558.8 258L492.8 270.7Z" fill="#246688" stroke="#246688"></path><path d="M492.8 270.7L431.6 173.3L419.4 278.7Z" fill="#15384f" stroke="#15384f"></path><path d="M541.6 179L431.6 173.3L492.8 270.7Z" fill="#1d4e6b" stroke="#1d4e6b"></path><path d="M372.2 260.7L300.2 159.3L328.9 278.7Z" fill="#246688" stroke="#246688"></path><path d="M398.2 457.7L491.8 448.7L427.6 403Z" fill="#246688" stroke="#246688"></path><path d="M427.6 403L491.8 448.7L470.4 388Z" fill="#297ea6" stroke="#297ea6"></path><path d="M500.8 392L538.6 421.7L515.8 294.3Z" fill="#081a28" stroke="#081a28"></path><path d="M491.8 448.7L538.6 421.7L500.8 392Z" fill="#297ea6" stroke="#297ea6"></path><path d="M319.9 356L358.4 440.7L427.6 403Z" fill="#246688" stroke="#246688"></path><path d="M358.4 440.7L398.2 457.7L427.6 403Z" fill="#19435d" stroke="#19435d"></path><path d="M264.9 359.3L291.2 378L319.9 356Z" fill="#246688" stroke="#246688"></path><path d="M319.9 356L291.2 378L358.4 440.7Z" fill="#19435d" stroke="#19435d"></path><path d="M558.8 258L541.6 179L492.8 270.7Z" fill="#19435d" stroke="#19435d"></path><path d="M394.4 118.3L396.4 137L408.4 101.7Z" fill="#1d4e6b" stroke="#1d4e6b"></path><path d="M431.6 173.3L396.4 137L372.2 260.7Z" fill="#205a7a" stroke="#205a7a"></path><path d="M328.9 278.7L264.9 359.3L319.9 356Z" fill="#1d4e6b" stroke="#1d4e6b"></path><path d="M291.2 378L260.9 408.7L358.4 440.7Z" fill="#00101c" stroke="#00101c"></path><path d="M234.9 220L264.9 359.3L328.9 278.7Z" fill="#297ea6" stroke="#297ea6"></path><path d="M464.6 108.7L396.4 137L431.6 173.3Z" fill="#00101c" stroke="#00101c"></path><path d="M396.4 137L329.2 145L372.2 260.7Z" fill="#246688" stroke="#246688"></path><path d="M394.4 118.3L329.2 145L396.4 137Z" fill="#19435d" stroke="#19435d"></path><path d="M247.7 385L260.9 408.7L291.2 378Z" fill="#19435d" stroke="#19435d"></path><path d="M419.4 585.3L460.6 514.3L398.2 457.7Z" fill="#00101c" stroke="#00101c"></path><path d="M558.8 258L617.1 217.7L541.6 179Z" fill="#277297" stroke="#277297"></path><path d="M640.1 301.3L617.1 217.7L558.8 258Z" fill="#112e42" stroke="#112e42"></path><path d="M579.1 121.3L464.6 108.7L541.6 179Z" fill="#19435d" stroke="#19435d"></path><path d="M541.6 179L464.6 108.7L431.6 173.3Z" fill="#205a7a" stroke="#205a7a"></path><path d="M329.2 145L300.2 159.3L372.2 260.7Z" fill="#0c2435" stroke="#0c2435"></path><path d="M203.7 340.3L247.7 385L264.9 359.3Z" fill="#1d4e6b" stroke="#1d4e6b"></path><path d="M264.9 359.3L247.7 385L291.2 378Z" fill="#246688" stroke="#246688"></path><path d="M653.1 368L640.1 301.3L515.8 294.3Z" fill="#205a7a" stroke="#205a7a"></path><path d="M398.2 457.7L460.6 514.3L491.8 448.7Z" fill="#112e42" stroke="#112e42"></path><path d="M594.8 498.3L616.1 475.7L538.6 421.7Z" fill="#1d4e6b" stroke="#1d4e6b"></path><path d="M653.1 368L656.3 349L640.1 301.3Z" fill="#205a7a" stroke="#205a7a"></path><path d="M330.2 487.3L398.2 457.7L358.4 440.7Z" fill="#15384f" stroke="#15384f"></path><path d="M260.9 408.7L330.2 487.3L358.4 440.7Z" fill="#15384f" stroke="#15384f"></path><path d="M464.6 108.7L408.4 101.7L396.4 137Z" fill="#19435d" stroke="#19435d"></path><path d="M394.4 118.3L333.9 106.7L329.2 145Z" fill="#1d4e6b" stroke="#1d4e6b"></path><path d="M329.2 145L288.9 103.3L300.2 159.3Z" fill="#277297" stroke="#277297"></path><path d="M300.2 159.3L234.9 220L328.9 278.7Z" fill="#19435d" stroke="#19435d"></path><path d="M653.1 368L515.8 294.3L538.6 421.7Z" fill="#00101c" stroke="#00101c"></path><path d="M640.1 301.3L670.3 247.7L617.1 217.7Z" fill="#277297" stroke="#277297"></path><path d="M616.1 475.7L653.1 368L538.6 421.7Z" fill="#246688" stroke="#246688"></path><path d="M408.4 101.7L333.9 106.7L394.4 118.3Z" fill="#1d4e6b" stroke="#1d4e6b"></path><path d="M234.7 140.3L215.7 209.7L234.9 220Z" fill="#15384f" stroke="#15384f"></path><path d="M715.5 351.3L670.3 307.3L656.3 349Z" fill="#277297" stroke="#277297"></path><path d="M656.3 349L670.3 307.3L640.1 301.3Z" fill="#1d4e6b" stroke="#1d4e6b"></path><path d="M234.9 220L203.7 340.3L264.9 359.3Z" fill="#205a7a" stroke="#205a7a"></path><path d="M247.7 385L219.9 470.3L260.9 408.7Z" fill="#081a28" stroke="#081a28"></path><path d="M594.8 118.3L579.1 121.3L617.1 217.7Z" fill="#0c2435" stroke="#0c2435"></path><path d="M617.1 217.7L579.1 121.3L541.6 179Z" fill="#00101c" stroke="#00101c"></path><path d="M379.2 0L333.9 106.7L408.4 101.7Z" fill="#277297" stroke="#277297"></path><path d="M670.3 307.3L670.3 247.7L640.1 301.3Z" fill="#277297" stroke="#277297"></path><path d="M234.7 140.3L234.9 220L300.2 159.3Z" fill="#00101c" stroke="#00101c"></path><path d="M234.9 220L161.7 252L203.7 340.3Z" fill="#19435d" stroke="#19435d"></path><path d="M594.8 498.3L538.6 421.7L491.8 448.7Z" fill="#00101c" stroke="#00101c"></path><path d="M460.6 514.3L594.8 498.3L491.8 448.7Z" fill="#0c2435" stroke="#0c2435"></path><path d="M653.1 165L594.8 118.3L617.1 217.7Z" fill="#246688" stroke="#246688"></path><path d="M503.8 4.7L420.4 0L464.6 108.7Z" fill="#00101c" stroke="#00101c"></path><path d="M290.2 69.7L288.9 103.3L333.9 106.7Z" fill="#0c2435" stroke="#0c2435"></path><path d="M333.9 106.7L288.9 103.3L329.2 145Z" fill="#112e42" stroke="#112e42"></path><path d="M681.3 179L653.1 165L617.1 217.7Z" fill="#0c2435" stroke="#0c2435"></path><path d="M288.9 103.3L234.7 140.3L300.2 159.3Z" fill="#205a7a" stroke="#205a7a"></path><path d="M127.5 416L219.9 470.3L247.7 385Z" fill="#112e42" stroke="#112e42"></path><path d="M260.9 408.7L219.9 470.3L330.2 487.3Z" fill="#246688" stroke="#246688"></path><path d="M330.2 487.3L419.4 585.3L398.2 457.7Z" fill="#19435d" stroke="#19435d"></path><path d="M406.2 600L419.4 585.3L367.4 600Z" fill="#297ea6" stroke="#297ea6"></path><path d="M460.6 514.3L565.1 588.3L594.8 498.3Z" fill="#19435d" stroke="#19435d"></path><path d="M670.3 247.7L681.3 179L617.1 217.7Z" fill="#112e42" stroke="#112e42"></path><path d="M653.1 165L665.3 90.3L594.8 118.3Z" fill="#112e42" stroke="#112e42"></path><path d="M717.5 233.7L681.3 179L670.3 247.7Z" fill="#277297" stroke="#277297"></path><path d="M191.5 147.3L161.7 252L215.7 209.7Z" fill="#277297" stroke="#277297"></path><path d="M215.7 209.7L161.7 252L234.9 220Z" fill="#297ea6" stroke="#297ea6"></path><path d="M146.5 484.3L198.5 492.7L219.9 470.3Z" fill="#0c2435" stroke="#0c2435"></path><path d="M288.9 103.3L196.7 57.7L234.7 140.3Z" fill="#00101c" stroke="#00101c"></path><path d="M379.2 0L290.2 69.7L333.9 106.7Z" fill="#1d4e6b" stroke="#1d4e6b"></path><path d="M420.4 0L408.4 101.7L464.6 108.7Z" fill="#112e42" stroke="#112e42"></path><path d="M736.5 385L715.5 351.3L653.1 368Z" fill="#1d4e6b" stroke="#1d4e6b"></path><path d="M653.1 368L715.5 351.3L656.3 349Z" fill="#19435d" stroke="#19435d"></path><path d="M670.3 307.3L717.5 233.7L670.3 247.7Z" fill="#19435d" stroke="#19435d"></path><path d="M419.4 585.3L450.6 600L460.6 514.3Z" fill="#19435d" stroke="#19435d"></path><path d="M771.8 278.7L717.5 233.7L670.3 307.3Z" fill="#081a28" stroke="#081a28"></path><path d="M161.7 252L146.5 283.3L203.7 340.3Z" fill="#1d4e6b" stroke="#1d4e6b"></path><path d="M367.4 600L419.4 585.3L330.2 487.3Z" fill="#277297" stroke="#277297"></path><path d="M419.4 585.3L406.2 600L450.6 600Z" fill="#081a28" stroke="#081a28"></path><path d="M196.7 57.7L191.5 147.3L234.7 140.3Z" fill="#297ea6" stroke="#297ea6"></path><path d="M234.7 140.3L191.5 147.3L215.7 209.7Z" fill="#1d4e6b" stroke="#1d4e6b"></path><path d="M161.7 252L85.5 230.7L146.5 283.3Z" fill="#19435d" stroke="#19435d"></path><path d="M304.9 600L367.4 600L330.2 487.3Z" fill="#19435d" stroke="#19435d"></path><path d="M450.6 600L506.8 600L460.6 514.3Z" fill="#112e42" stroke="#112e42"></path><path d="M594.8 498.3L713.3 498.3L616.1 475.7Z" fill="#15384f" stroke="#15384f"></path><path d="M127.5 416L247.7 385L203.7 340.3Z" fill="#112e42" stroke="#112e42"></path><path d="M219.9 470.3L304.9 600L330.2 487.3Z" fill="#277297" stroke="#277297"></path><path d="M506.8 600L565.1 588.3L460.6 514.3Z" fill="#112e42" stroke="#112e42"></path><path d="M732.5 480.7L736.5 385L653.1 368Z" fill="#205a7a" stroke="#205a7a"></path><path d="M732.5 480.7L653.1 368L616.1 475.7Z" fill="#112e42" stroke="#112e42"></path><path d="M715.5 351.3L771.8 278.7L670.3 307.3Z" fill="#112e42" stroke="#112e42"></path><path d="M503.8 4.7L464.6 108.7L579.1 121.3Z" fill="#205a7a" stroke="#205a7a"></path><path d="M502.6 0L503.8 4.7L661.1 18.7Z" fill="#1d4e6b" stroke="#1d4e6b"></path><path d="M594.8 118.3L503.8 4.7L579.1 121.3Z" fill="#246688" stroke="#246688"></path><path d="M420.4 0L379.2 0L408.4 101.7Z" fill="#15384f" stroke="#15384f"></path><path d="M503.8 4.7L498.8 0L420.4 0Z" fill="#277297" stroke="#277297"></path><path d="M661.1 18.7L503.8 4.7L594.8 118.3Z" fill="#0c2435" stroke="#0c2435"></path><path d="M503.8 4.7L502.6 0L498.8 0Z" fill="#205a7a" stroke="#205a7a"></path><path d="M718.3 107.7L653.1 165L681.3 179Z" fill="#0c2435" stroke="#0c2435"></path><path d="M718.3 107.7L665.3 90.3L653.1 165Z" fill="#15384f" stroke="#15384f"></path><path d="M209.7 586.3L304.9 600L219.9 470.3Z" fill="#00101c" stroke="#00101c"></path><path d="M92.2 382L127.5 416L203.7 340.3Z" fill="#00101c" stroke="#00101c"></path><path d="M635.1 600L713.3 498.3L594.8 498.3Z" fill="#297ea6" stroke="#297ea6"></path><path d="M379.2 0L305.9 0L290.2 69.7Z" fill="#0c2435" stroke="#0c2435"></path><path d="M290.2 69.7L196.7 57.7L288.9 103.3Z" fill="#205a7a" stroke="#205a7a"></path><path d="M772.8 279.3L771.8 278.7L715.5 351.3Z" fill="#19435d" stroke="#19435d"></path><path d="M734.5 131.3L718.3 107.7L681.3 179Z" fill="#297ea6" stroke="#297ea6"></path><path d="M772.8 279.3L715.5 351.3L736.5 385Z" fill="#112e42" stroke="#112e42"></path><path d="M841.8 429L772.8 279.3L736.5 385Z" fill="#081a28" stroke="#081a28"></path><path d="M734.5 131.3L681.3 179L717.5 233.7Z" fill="#205a7a" stroke="#205a7a"></path><path d="M127.5 416L146.5 484.3L219.9 470.3Z" fill="#15384f" stroke="#15384f"></path><path d="M198.5 492.7L209.7 586.3L219.9 470.3Z" fill="#15384f" stroke="#15384f"></path><path d="M635.1 600L718.3 501.7L713.3 498.3Z" fill="#277297" stroke="#277297"></path><path d="M713.3 498.3L732.5 480.7L616.1 475.7Z" fill="#246688" stroke="#246688"></path><path d="M718.3 501.7L732.5 480.7L713.3 498.3Z" fill="#15384f" stroke="#15384f"></path><path d="M146.5 484.3L158.7 510.7L198.5 492.7Z" fill="#112e42" stroke="#112e42"></path><path d="M734.5 131.3L717.5 233.7L812.5 177Z" fill="#15384f" stroke="#15384f"></path><path d="M665.3 90.3L661.1 18.7L594.8 118.3Z" fill="#15384f" stroke="#15384f"></path><path d="M812.5 177L717.5 233.7L771.8 278.7Z" fill="#19435d" stroke="#19435d"></path><path d="M238.7 0L196.7 57.7L290.2 69.7Z" fill="#297ea6" stroke="#297ea6"></path><path d="M191.5 147.3L100.5 188L161.7 252Z" fill="#0c2435" stroke="#0c2435"></path><path d="M146.5 283.3L92.2 382L203.7 340.3Z" fill="#277297" stroke="#277297"></path><path d="M127.5 416L70.2 473.7L146.5 484.3Z" fill="#205a7a" stroke="#205a7a"></path><path d="M146.5 484.3L70.2 473.7L158.7 510.7Z" fill="#297ea6" stroke="#297ea6"></path><path d="M40.2 328.3L92.2 382L146.5 283.3Z" fill="#297ea6" stroke="#297ea6"></path><path d="M565.1 588.3L635.1 600L594.8 498.3Z" fill="#0c2435" stroke="#0c2435"></path><path d="M506.8 600L635.1 600L565.1 588.3Z" fill="#19435d" stroke="#19435d"></path><path d="M133.5 89.7L100.5 188L191.5 147.3Z" fill="#277297" stroke="#277297"></path><path d="M158.7 510.7L209.7 586.3L198.5 492.7Z" fill="#246688" stroke="#246688"></path><path d="M100.5 188L85.5 230.7L161.7 252Z" fill="#15384f" stroke="#15384f"></path><path d="M129.5 600L216.7 600L209.7 586.3Z" fill="#112e42" stroke="#112e42"></path><path d="M209.7 586.3L216.7 600L304.9 600Z" fill="#081a28" stroke="#081a28"></path><path d="M305.9 0L238.7 0L290.2 69.7Z" fill="#0c2435" stroke="#0c2435"></path><path d="M196.7 57.7L133.5 89.7L191.5 147.3Z" fill="#00101c" stroke="#00101c"></path><path d="M736.5 81.7L665.3 90.3L718.3 107.7Z" fill="#277297" stroke="#277297"></path><path d="M736.5 81.7L661.1 18.7L665.3 90.3Z" fill="#1d4e6b" stroke="#1d4e6b"></path><path d="M162.5 0L133.5 89.7L196.7 57.7Z" fill="#0c2435" stroke="#0c2435"></path><path d="M100.5 188L65.2 211.7L85.5 230.7Z" fill="#19435d" stroke="#19435d"></path><path d="M785.8 87.3L736.5 81.7L734.5 131.3Z" fill="#081a28" stroke="#081a28"></path><path d="M734.5 131.3L736.5 81.7L718.3 107.7Z" fill="#112e42" stroke="#112e42"></path><path d="M62.2 191L65.2 211.7L100.5 188Z" fill="#246688" stroke="#246688"></path><path d="M85.5 230.7L40.2 328.3L146.5 283.3Z" fill="#00101c" stroke="#00101c"></path><path d="M748.3 0L670.1 0L661.1 18.7Z" fill="#00101c" stroke="#00101c"></path><path d="M661.1 18.7L670.1 0L502.6 0Z" fill="#246688" stroke="#246688"></path><path d="M31.2 151.3L62.2 191L100.5 188Z" fill="#00101c" stroke="#00101c"></path><path d="M0 314.3L40.2 328.3L85.5 230.7Z" fill="#205a7a" stroke="#205a7a"></path><path d="M92.2 382L70.2 473.7L127.5 416Z" fill="#297ea6" stroke="#297ea6"></path><path d="M158.7 510.7L129.5 600L209.7 586.3Z" fill="#205a7a" stroke="#205a7a"></path><path d="M0 314.3L85.5 230.7L65.2 211.7Z" fill="#297ea6" stroke="#297ea6"></path><path d="M884.8 191L812.5 177L900 232Z" fill="#15384f" stroke="#15384f"></path><path d="M772.8 279.3L812.5 177L771.8 278.7Z" fill="#00101c" stroke="#00101c"></path><path d="M812.5 177L789.8 122.7L734.5 131.3Z" fill="#15384f" stroke="#15384f"></path><path d="M736.5 81.7L748.3 0L661.1 18.7Z" fill="#00101c" stroke="#00101c"></path><path d="M0 348L70.2 473.7L92.2 382Z" fill="#1d4e6b" stroke="#1d4e6b"></path><path d="M238.7 0L162.5 0L196.7 57.7Z" fill="#0c2435" stroke="#0c2435"></path><path d="M133.5 89.7L31.2 151.3L100.5 188Z" fill="#112e42" stroke="#112e42"></path><path d="M900 146.3L785.8 87.3L789.8 122.7Z" fill="#205a7a" stroke="#205a7a"></path><path d="M789.8 122.7L785.8 87.3L734.5 131.3Z" fill="#081a28" stroke="#081a28"></path><path d="M818.5 520.3L841.8 429L732.5 480.7Z" fill="#081a28" stroke="#081a28"></path><path d="M732.5 480.7L841.8 429L736.5 385Z" fill="#297ea6" stroke="#297ea6"></path><path d="M818.5 520.3L732.5 480.7L718.3 501.7Z" fill="#205a7a" stroke="#205a7a"></path><path d="M120.2 600L129.5 600L158.7 510.7Z" fill="#277297" stroke="#277297"></path><path d="M635.1 600L751.3 600L718.3 501.7Z" fill="#19435d" stroke="#19435d"></path><path d="M86.2 593.3L120.2 600L158.7 510.7Z" fill="#1d4e6b" stroke="#1d4e6b"></path><path d="M0 152.3L31.2 151.3L0 139Z" fill="#081a28" stroke="#081a28"></path><path d="M62.2 191L0 152.3L65.2 211.7Z" fill="#277297" stroke="#277297"></path><path d="M766.5 600L818.5 520.3L718.3 501.7Z" fill="#00101c" stroke="#00101c"></path><path d="M40.2 328.3L0 348L92.2 382Z" fill="#205a7a" stroke="#205a7a"></path><path d="M70.2 473.7L86.2 593.3L158.7 510.7Z" fill="#19435d" stroke="#19435d"></path><path d="M0 152.3L0 314.3L65.2 211.7Z" fill="#081a28" stroke="#081a28"></path><path d="M0 314.3L0 316.7L40.2 328.3Z" fill="#246688" stroke="#246688"></path><path d="M0 316.7L0 348L40.2 328.3Z" fill="#277297" stroke="#277297"></path><path d="M785.8 87.3L748.3 0L736.5 81.7Z" fill="#297ea6" stroke="#297ea6"></path><path d="M751.3 600L766.5 600L718.3 501.7Z" fill="#19435d" stroke="#19435d"></path><path d="M0 515.7L86.2 593.3L70.2 473.7Z" fill="#1d4e6b" stroke="#1d4e6b"></path><path d="M900 232L812.5 177L772.8 279.3Z" fill="#19435d" stroke="#19435d"></path><path d="M812.5 177L900 146.3L789.8 122.7Z" fill="#19435d" stroke="#19435d"></path><path d="M785.8 87.3L800.8 0L748.3 0Z" fill="#205a7a" stroke="#205a7a"></path><path d="M900 359.3L772.8 279.3L841.8 429Z" fill="#277297" stroke="#277297"></path><path d="M900 359.3L900 323.7L772.8 279.3Z" fill="#246688" stroke="#246688"></path><path d="M0 139L31.2 151.3L0 29.7Z" fill="#112e42" stroke="#112e42"></path><path d="M31.2 151.3L0 152.3L62.2 191Z" fill="#15384f" stroke="#15384f"></path><path d="M900 394L900 359.3L841.8 429Z" fill="#081a28" stroke="#081a28"></path><path d="M0 29.7L31.2 151.3L133.5 89.7Z" fill="#112e42" stroke="#112e42"></path><path d="M900 323.7L900 232L772.8 279.3Z" fill="#19435d" stroke="#19435d"></path><path d="M900 453.7L900 394L841.8 429Z" fill="#19435d" stroke="#19435d"></path><path d="M815.5 0L800.8 0L785.8 87.3Z" fill="#081a28" stroke="#081a28"></path><path d="M846.8 600L864.8 528.7L818.5 520.3Z" fill="#19435d" stroke="#19435d"></path><path d="M818.5 520.3L885.8 494.3L841.8 429Z" fill="#297ea6" stroke="#297ea6"></path><path d="M0 348L0 515.7L70.2 473.7Z" fill="#0c2435" stroke="#0c2435"></path><path d="M885.8 494.3L900 453.7L841.8 429Z" fill="#081a28" stroke="#081a28"></path><path d="M864.8 528.7L885.8 494.3L818.5 520.3Z" fill="#081a28" stroke="#081a28"></path><path d="M900 18.7L815.5 0L785.8 87.3Z" fill="#277297" stroke="#277297"></path><path d="M900 146.3L812.5 177L884.8 191Z" fill="#112e42" stroke="#112e42"></path><path d="M900 232L900 146.3L884.8 191Z" fill="#1d4e6b" stroke="#1d4e6b"></path><path d="M864.8 528.7L900 490.3L885.8 494.3Z" fill="#205a7a" stroke="#205a7a"></path><path d="M885.8 494.3L900 490.3L900 453.7Z" fill="#15384f" stroke="#15384f"></path><path d="M766.5 600L846.8 600L818.5 520.3Z" fill="#277297" stroke="#277297"></path><path d="M864.8 528.7L900 600L900 490.3Z" fill="#297ea6" stroke="#297ea6"></path><path d="M0 515.7L0 570.3L86.2 593.3Z" fill="#205a7a" stroke="#205a7a"></path><path d="M21.2 0L9.2 18.7L133.5 89.7Z" fill="#277297" stroke="#277297"></path><path d="M162.5 0L21.2 0L133.5 89.7Z" fill="#112e42" stroke="#112e42"></path><path d="M0 0L0 29.7L9.2 18.7Z" fill="#246688" stroke="#246688"></path><path d="M9.2 18.7L0 29.7L133.5 89.7Z" fill="#246688" stroke="#246688"></path><path d="M0 570.3L0 600L86.2 593.3Z" fill="#112e42" stroke="#112e42"></path><path d="M86.2 593.3L0 600L120.2 600Z" fill="#19435d" stroke="#19435d"></path><path d="M21.2 0L0 0L9.2 18.7Z" fill="#1d4e6b" stroke="#1d4e6b"></path><path d="M846.8 600L900 600L864.8 528.7Z" fill="#1d4e6b" stroke="#1d4e6b"></path><path d="M900 146.3L900 18.7L785.8 87.3Z" fill="#00101c" stroke="#00101c"></path><path d="M900 18.7L900 0L815.5 0Z" fill="#00101c" stroke="#00101c"></path></g></svg>